<svg xmlns="http://www.w3.org/2000/svg" viewBox="0 0 520 160" width="520" height="160" font-family="Segoe UI, Arial, sans-serif">
  <defs>
    <linearGradient id="badge" x1="0" y1="0" x2="1" y2="1">
      <stop offset="0" stop-color="#0f766e"/>
      <stop offset="1" stop-color="#115e59"/>
    </linearGradient>
    <linearGradient id="beam" x1="0" y1="0" x2="1" y2="0">
      <stop offset="0" stop-color="#5eead4" stop-opacity="0"/>
      <stop offset="0.5" stop-color="#5eead4"/>
      <stop offset="1" stop-color="#5eead4" stop-opacity="0"/>
    </linearGradient>
  </defs>

  <!-- Icon badge -->
  <rect x="16" y="20" width="120" height="120" rx="28" fill="url(#badge)"/>
  <!-- Document -->
  <path d="M52 48 h34 l18 18 v46 a4 4 0 0 1 -4 4 H52 a4 4 0 0 1 -4 -4 V52 a4 4 0 0 1 4 -4 z"
        fill="#ffffff"/>
  <path d="M86 48 v18 h18 z" fill="#cbeee9"/>
  <!-- Text lines on document -->
  <rect x="58" y="74" width="40" height="5" rx="2.5" fill="#0f766e" opacity="0.35"/>
  <rect x="58" y="86" width="40" height="5" rx="2.5" fill="#0f766e" opacity="0.35"/>
  <rect x="58" y="98" width="26" height="5" rx="2.5" fill="#0f766e" opacity="0.35"/>
  <!-- Scan beam -->
  <rect x="40" y="90" width="72" height="8" rx="4" fill="url(#beam)"/>
  <rect x="40" y="92.5" width="72" height="3" rx="1.5" fill="#99f6e4"/>

  <!-- Wordmark -->
  <text x="164" y="98" font-size="58" font-weight="800" letter-spacing="-1">
    <tspan fill="#1f2933">Apne</tspan><tspan fill="#0f766e">Scan</tspan>
  </text>
  <text x="166" y="126" font-size="18" font-weight="600" fill="#64748b" letter-spacing="2">
    SCAN · ORGANIZE · PDF
  </text>
</svg>
